%TF.GenerationSoftware,KiCad,Pcbnew,9.0.8*%
%TF.CreationDate,2026-04-28T18:15:08-05:00*%
%TF.ProjectId,SmartFridgeProject,536d6172-7446-4726-9964-676550726f6a,rev?*%
%TF.SameCoordinates,Original*%
%TF.FileFunction,Soldermask,Top*%
%TF.FilePolarity,Negative*%
%FSLAX46Y46*%
G04 Gerber Fmt 4.6, Leading zero omitted, Abs format (unit mm)*
G04 Created by KiCad (PCBNEW 9.0.8) date 2026-04-28 18:15:08*
%MOMM*%
%LPD*%
G01*
G04 APERTURE LIST*
G04 Aperture macros list*
%AMRoundRect*
0 Rectangle with rounded corners*
0 $1 Rounding radius*
0 $2 $3 $4 $5 $6 $7 $8 $9 X,Y pos of 4 corners*
0 Add a 4 corners polygon primitive as box body*
4,1,4,$2,$3,$4,$5,$6,$7,$8,$9,$2,$3,0*
0 Add four circle primitives for the rounded corners*
1,1,$1+$1,$2,$3*
1,1,$1+$1,$4,$5*
1,1,$1+$1,$6,$7*
1,1,$1+$1,$8,$9*
0 Add four rect primitives between the rounded corners*
20,1,$1+$1,$2,$3,$4,$5,0*
20,1,$1+$1,$4,$5,$6,$7,0*
20,1,$1+$1,$6,$7,$8,$9,0*
20,1,$1+$1,$8,$9,$2,$3,0*%
%AMFreePoly0*
4,1,6,0.500000,-0.850000,-0.500000,-0.850000,-0.500000,0.550000,-0.200000,0.850000,0.500000,0.850000,0.500000,-0.850000,0.500000,-0.850000,$1*%
G04 Aperture macros list end*
%ADD10R,1.700000X1.700000*%
%ADD11C,1.700000*%
%ADD12C,1.600000*%
%ADD13RoundRect,0.250000X-0.550000X0.550000X-0.550000X-0.550000X0.550000X-0.550000X0.550000X0.550000X0*%
%ADD14R,1.800000X1.800000*%
%ADD15C,1.800000*%
%ADD16R,2.000000X2.000000*%
%ADD17C,2.000000*%
%ADD18RoundRect,0.137500X-0.600000X-0.137500X0.600000X-0.137500X0.600000X0.137500X-0.600000X0.137500X0*%
%ADD19RoundRect,0.137500X-0.137500X-0.600000X0.137500X-0.600000X0.137500X0.600000X-0.137500X0.600000X0*%
%ADD20R,1.050000X1.500000*%
%ADD21O,1.050000X1.500000*%
%ADD22R,0.550000X0.250000*%
%ADD23FreePoly0,0.000000*%
%ADD24RoundRect,0.375000X-0.625000X-0.375000X0.625000X-0.375000X0.625000X0.375000X-0.625000X0.375000X0*%
%ADD25RoundRect,0.500000X-0.500000X-1.400000X0.500000X-1.400000X0.500000X1.400000X-0.500000X1.400000X0*%
G04 APERTURE END LIST*
D10*
%TO.C,J1*%
X149000000Y-92500000D03*
D11*
X146460000Y-92500000D03*
X143920000Y-92500000D03*
X141380000Y-92500000D03*
%TD*%
D12*
%TO.C,R4*%
X99500000Y-102620000D03*
X99500000Y-95000000D03*
%TD*%
D13*
%TO.C,C2*%
X73500000Y-87000000D03*
D12*
X73500000Y-89000000D03*
%TD*%
%TO.C,R1*%
X133500000Y-115500000D03*
X133500000Y-107880000D03*
%TD*%
D14*
%TO.C,D1*%
X115460000Y-127500000D03*
D15*
X118000000Y-127500000D03*
%TD*%
D12*
%TO.C,R5*%
X85690000Y-107500000D03*
X93310000Y-107500000D03*
%TD*%
D16*
%TO.C,BZ1*%
X72400000Y-120000000D03*
D17*
X80000000Y-120000000D03*
%TD*%
D12*
%TO.C,C1*%
X113500000Y-104000000D03*
X116000000Y-104000000D03*
%TD*%
D18*
%TO.C,U1*%
X107337500Y-92700000D03*
X107337500Y-93500000D03*
X107337500Y-94300000D03*
X107337500Y-95100000D03*
X107337500Y-95900000D03*
X107337500Y-96700000D03*
X107337500Y-97500000D03*
X107337500Y-98300000D03*
D19*
X108700000Y-99662500D03*
X109500000Y-99662500D03*
X110300000Y-99662500D03*
X111100000Y-99662500D03*
X111900000Y-99662500D03*
X112700000Y-99662500D03*
X113500000Y-99662500D03*
X114300000Y-99662500D03*
D18*
X115662500Y-98300000D03*
X115662500Y-97500000D03*
X115662500Y-96700000D03*
X115662500Y-95900000D03*
X115662500Y-95100000D03*
X115662500Y-94300000D03*
X115662500Y-93500000D03*
X115662500Y-92700000D03*
D19*
X114300000Y-91337500D03*
X113500000Y-91337500D03*
X112700000Y-91337500D03*
X111900000Y-91337500D03*
X111100000Y-91337500D03*
X110300000Y-91337500D03*
X109500000Y-91337500D03*
X108700000Y-91337500D03*
%TD*%
D20*
%TO.C,Q1*%
X78230000Y-107860000D03*
D21*
X79500000Y-107860000D03*
X80770000Y-107860000D03*
%TD*%
D22*
%TO.C,U3*%
X132825000Y-101250000D03*
X132825000Y-101750000D03*
X132825000Y-102250000D03*
X132825000Y-102750000D03*
X135175000Y-102750000D03*
X135175000Y-102250000D03*
X135175000Y-101750000D03*
X135175000Y-101250000D03*
D23*
X134000000Y-102000000D03*
%TD*%
D17*
%TO.C,SW2*%
X125000000Y-117500000D03*
X118500000Y-117500000D03*
X125000000Y-113000000D03*
X118500000Y-113000000D03*
%TD*%
D12*
%TO.C,R9*%
X128500000Y-85000000D03*
X120880000Y-85000000D03*
%TD*%
D14*
%TO.C,D2*%
X106725000Y-127500000D03*
D15*
X109265000Y-127500000D03*
%TD*%
D12*
%TO.C,R3*%
X106500000Y-119620000D03*
X106500000Y-112000000D03*
%TD*%
%TO.C,R10*%
X127000000Y-81000000D03*
X119380000Y-81000000D03*
%TD*%
D17*
%TO.C,SW3*%
X95000000Y-113000000D03*
X101500000Y-113000000D03*
X95000000Y-117500000D03*
X101500000Y-117500000D03*
%TD*%
D12*
%TO.C,R2*%
X113500000Y-111880000D03*
X113500000Y-119500000D03*
%TD*%
%TO.C,R8*%
X139000000Y-105000000D03*
X139000000Y-97380000D03*
%TD*%
%TO.C,R6*%
X107000000Y-81000000D03*
X114620000Y-81000000D03*
%TD*%
D24*
%TO.C,U2*%
X80850000Y-83200000D03*
X80850000Y-85500000D03*
D25*
X87150000Y-85500000D03*
D24*
X80850000Y-87800000D03*
%TD*%
D13*
%TO.C,C3*%
X73500000Y-80500000D03*
D12*
X73500000Y-82500000D03*
%TD*%
D10*
%TO.C,J2*%
X134000000Y-81500000D03*
D11*
X134000000Y-84040000D03*
X134000000Y-86580000D03*
X134000000Y-89120000D03*
%TD*%
D10*
%TO.C,door_reed1*%
X97960000Y-88500000D03*
D11*
X100500000Y-88500000D03*
%TD*%
D12*
%TO.C,R7*%
X95500000Y-81000000D03*
X103120000Y-81000000D03*
%TD*%
%TO.C,C4*%
X120000000Y-95250000D03*
X120000000Y-97750000D03*
%TD*%
%TO.C,Thermistor1*%
X133500000Y-127000000D03*
X133500000Y-119380000D03*
%TD*%
M02*
