%TF.GenerationSoftware,KiCad,Pcbnew,9.0.8*%
%TF.CreationDate,2026-04-28T18:15:08-05:00*%
%TF.ProjectId,SmartFridgeProject,536d6172-7446-4726-9964-676550726f6a,rev?*%
%TF.SameCoordinates,Original*%
%TF.FileFunction,Copper,L1,Top*%
%TF.FilePolarity,Positive*%
%FSLAX46Y46*%
G04 Gerber Fmt 4.6, Leading zero omitted, Abs format (unit mm)*
G04 Created by KiCad (PCBNEW 9.0.8) date 2026-04-28 18:15:08*
%MOMM*%
%LPD*%
G01*
G04 APERTURE LIST*
G04 Aperture macros list*
%AMRoundRect*
0 Rectangle with rounded corners*
0 $1 Rounding radius*
0 $2 $3 $4 $5 $6 $7 $8 $9 X,Y pos of 4 corners*
0 Add a 4 corners polygon primitive as box body*
4,1,4,$2,$3,$4,$5,$6,$7,$8,$9,$2,$3,0*
0 Add four circle primitives for the rounded corners*
1,1,$1+$1,$2,$3*
1,1,$1+$1,$4,$5*
1,1,$1+$1,$6,$7*
1,1,$1+$1,$8,$9*
0 Add four rect primitives between the rounded corners*
20,1,$1+$1,$2,$3,$4,$5,0*
20,1,$1+$1,$4,$5,$6,$7,0*
20,1,$1+$1,$6,$7,$8,$9,0*
20,1,$1+$1,$8,$9,$2,$3,0*%
%AMFreePoly0*
4,1,6,0.500000,-0.850000,-0.500000,-0.850000,-0.500000,0.550000,-0.200000,0.850000,0.500000,0.850000,0.500000,-0.850000,0.500000,-0.850000,$1*%
G04 Aperture macros list end*
%TA.AperFunction,ComponentPad*%
%ADD10R,1.700000X1.700000*%
%TD*%
%TA.AperFunction,ComponentPad*%
%ADD11C,1.700000*%
%TD*%
%TA.AperFunction,ComponentPad*%
%ADD12C,1.600000*%
%TD*%
%TA.AperFunction,ComponentPad*%
%ADD13RoundRect,0.250000X-0.550000X0.550000X-0.550000X-0.550000X0.550000X-0.550000X0.550000X0.550000X0*%
%TD*%
%TA.AperFunction,ComponentPad*%
%ADD14R,1.800000X1.800000*%
%TD*%
%TA.AperFunction,ComponentPad*%
%ADD15C,1.800000*%
%TD*%
%TA.AperFunction,ComponentPad*%
%ADD16R,2.000000X2.000000*%
%TD*%
%TA.AperFunction,ComponentPad*%
%ADD17C,2.000000*%
%TD*%
%TA.AperFunction,SMDPad,CuDef*%
%ADD18RoundRect,0.137500X-0.600000X-0.137500X0.600000X-0.137500X0.600000X0.137500X-0.600000X0.137500X0*%
%TD*%
%TA.AperFunction,SMDPad,CuDef*%
%ADD19RoundRect,0.137500X-0.137500X-0.600000X0.137500X-0.600000X0.137500X0.600000X-0.137500X0.600000X0*%
%TD*%
%TA.AperFunction,ComponentPad*%
%ADD20R,1.050000X1.500000*%
%TD*%
%TA.AperFunction,ComponentPad*%
%ADD21O,1.050000X1.500000*%
%TD*%
%TA.AperFunction,SMDPad,CuDef*%
%ADD22R,0.550000X0.250000*%
%TD*%
%TA.AperFunction,SMDPad,CuDef*%
%ADD23FreePoly0,0.000000*%
%TD*%
%TA.AperFunction,SMDPad,CuDef*%
%ADD24RoundRect,0.375000X-0.625000X-0.375000X0.625000X-0.375000X0.625000X0.375000X-0.625000X0.375000X0*%
%TD*%
%TA.AperFunction,SMDPad,CuDef*%
%ADD25RoundRect,0.500000X-0.500000X-1.400000X0.500000X-1.400000X0.500000X1.400000X-0.500000X1.400000X0*%
%TD*%
%TA.AperFunction,ViaPad*%
%ADD26C,0.600000*%
%TD*%
%TA.AperFunction,Conductor*%
%ADD27C,0.200000*%
%TD*%
G04 APERTURE END LIST*
D10*
%TO.P,J1,1,Pin_1*%
%TO.N,/3.3V*%
X149000000Y-92500000D03*
D11*
%TO.P,J1,2,Pin_2*%
%TO.N,GND*%
X146460000Y-92500000D03*
%TO.P,J1,3,Pin_3*%
%TO.N,/SDA*%
X143920000Y-92500000D03*
%TO.P,J1,4,Pin_4*%
%TO.N,/SCL*%
X141380000Y-92500000D03*
%TD*%
D12*
%TO.P,R4,1*%
%TO.N,GND*%
X99500000Y-102620000D03*
%TO.P,R4,2*%
%TO.N,Net-(U1-PD4)*%
X99500000Y-95000000D03*
%TD*%
D13*
%TO.P,C2,1*%
%TO.N,GND*%
X73500000Y-87000000D03*
D12*
%TO.P,C2,2*%
%TO.N,+5V*%
X73500000Y-89000000D03*
%TD*%
%TO.P,R1,1*%
%TO.N,/TEMP_ADC*%
X133500000Y-115500000D03*
%TO.P,R1,2*%
%TO.N,/3.3V*%
X133500000Y-107880000D03*
%TD*%
D14*
%TO.P,D1,1,K*%
%TO.N,GND*%
X115460000Y-127500000D03*
D15*
%TO.P,D1,2,A*%
%TO.N,/Status LED*%
X118000000Y-127500000D03*
%TD*%
D12*
%TO.P,R5,1*%
%TO.N,Net-(Q1-B)*%
X85690000Y-107500000D03*
%TO.P,R5,2*%
%TO.N,Net-(U1-PB1)*%
X93310000Y-107500000D03*
%TD*%
D16*
%TO.P,BZ1,1,+*%
%TO.N,+5V*%
X72400000Y-120000000D03*
D17*
%TO.P,BZ1,2,-*%
%TO.N,Net-(BZ1--)*%
X80000000Y-120000000D03*
%TD*%
D12*
%TO.P,C1,1*%
%TO.N,GND*%
X113500000Y-104000000D03*
%TO.P,C1,2*%
%TO.N,Net-(U1-AREF)*%
X116000000Y-104000000D03*
%TD*%
D18*
%TO.P,U1,1,PD3*%
%TO.N,/INT1*%
X107337500Y-92700000D03*
%TO.P,U1,2,PD4*%
%TO.N,Net-(U1-PD4)*%
X107337500Y-93500000D03*
%TO.P,U1,3,GND*%
%TO.N,GND*%
X107337500Y-94300000D03*
%TO.P,U1,4,VCC*%
%TO.N,/3.3V*%
X107337500Y-95100000D03*
%TO.P,U1,5,GND*%
%TO.N,GND*%
X107337500Y-95900000D03*
%TO.P,U1,6,VCC*%
%TO.N,/3.3V*%
X107337500Y-96700000D03*
%TO.P,U1,7,XTAL1/PB6*%
%TO.N,unconnected-(U1-XTAL1{slash}PB6-Pad7)*%
X107337500Y-97500000D03*
%TO.P,U1,8,XTAL2/PB7*%
%TO.N,unconnected-(U1-XTAL2{slash}PB7-Pad8)*%
X107337500Y-98300000D03*
D19*
%TO.P,U1,9,PD5*%
%TO.N,Net-(U1-PD5)*%
X108700000Y-99662500D03*
%TO.P,U1,10,PD6*%
%TO.N,Net-(U1-PD6)*%
X109500000Y-99662500D03*
%TO.P,U1,11,PD7*%
%TO.N,unconnected-(U1-PD7-Pad11)*%
X110300000Y-99662500D03*
%TO.P,U1,12,PB0*%
%TO.N,unconnected-(U1-PB0-Pad12)*%
X111100000Y-99662500D03*
%TO.P,U1,13,PB1*%
%TO.N,Net-(U1-PB1)*%
X111900000Y-99662500D03*
%TO.P,U1,14,PB2*%
%TO.N,unconnected-(U1-PB2-Pad14)*%
X112700000Y-99662500D03*
%TO.P,U1,15,PB3*%
%TO.N,unconnected-(U1-PB3-Pad15)*%
X113500000Y-99662500D03*
%TO.P,U1,16,PB4*%
%TO.N,unconnected-(U1-PB4-Pad16)*%
X114300000Y-99662500D03*
D18*
%TO.P,U1,17,PB5*%
%TO.N,unconnected-(U1-PB5-Pad17)*%
X115662500Y-98300000D03*
%TO.P,U1,18,AVCC*%
%TO.N,/3.3V*%
X115662500Y-97500000D03*
%TO.P,U1,19,ADC6*%
%TO.N,unconnected-(U1-ADC6-Pad19)*%
X115662500Y-96700000D03*
%TO.P,U1,20,AREF*%
%TO.N,Net-(U1-AREF)*%
X115662500Y-95900000D03*
%TO.P,U1,21,GND*%
%TO.N,GND*%
X115662500Y-95100000D03*
%TO.P,U1,22,ADC7*%
%TO.N,unconnected-(U1-ADC7-Pad22)*%
X115662500Y-94300000D03*
%TO.P,U1,23,PC0*%
%TO.N,/TEMP_ADC*%
X115662500Y-93500000D03*
%TO.P,U1,24,PC1*%
%TO.N,unconnected-(U1-PC1-Pad24)*%
X115662500Y-92700000D03*
D19*
%TO.P,U1,25,PC2*%
%TO.N,unconnected-(U1-PC2-Pad25)*%
X114300000Y-91337500D03*
%TO.P,U1,26,PC3*%
%TO.N,unconnected-(U1-PC3-Pad26)*%
X113500000Y-91337500D03*
%TO.P,U1,27,PC4*%
%TO.N,/SDA*%
X112700000Y-91337500D03*
%TO.P,U1,28,PC5*%
%TO.N,/SCL*%
X111900000Y-91337500D03*
%TO.P,U1,29,~{RESET}/PC6*%
%TO.N,unconnected-(U1-~{RESET}{slash}PC6-Pad29)*%
X111100000Y-91337500D03*
%TO.P,U1,30,PD0*%
%TO.N,/RX*%
X110300000Y-91337500D03*
%TO.P,U1,31,PD1*%
%TO.N,/TX*%
X109500000Y-91337500D03*
%TO.P,U1,32,PD2*%
%TO.N,/INT0*%
X108700000Y-91337500D03*
%TD*%
D20*
%TO.P,Q1,1,E*%
%TO.N,GND*%
X78230000Y-107860000D03*
D21*
%TO.P,Q1,2,B*%
%TO.N,Net-(Q1-B)*%
X79500000Y-107860000D03*
%TO.P,Q1,3,C*%
%TO.N,Net-(BZ1--)*%
X80770000Y-107860000D03*
%TD*%
D22*
%TO.P,U3,1,SDA*%
%TO.N,/SDA*%
X132825000Y-101250000D03*
%TO.P,U3,2,ADDR*%
%TO.N,GND*%
X132825000Y-101750000D03*
%TO.P,U3,3,ALERT*%
%TO.N,unconnected-(U3-ALERT-Pad3)*%
X132825000Y-102250000D03*
%TO.P,U3,4,SCL*%
%TO.N,/SCL*%
X132825000Y-102750000D03*
%TO.P,U3,5,VDD*%
%TO.N,/3.3V*%
X135175000Y-102750000D03*
%TO.P,U3,6,~{RESET}*%
%TO.N,Net-(U3-~{RESET})*%
X135175000Y-102250000D03*
%TO.P,U3,7,R*%
%TO.N,unconnected-(U3-R-Pad7)*%
X135175000Y-101750000D03*
%TO.P,U3,8,VSS*%
%TO.N,unconnected-(U3-VSS-Pad8)*%
X135175000Y-101250000D03*
D23*
%TO.P,U3,9,VSS*%
%TO.N,unconnected-(U3-VSS-Pad8)_1*%
X134000000Y-102000000D03*
%TD*%
D17*
%TO.P,SW2,1,1*%
%TO.N,GND*%
X125000000Y-117500000D03*
X118500000Y-117500000D03*
%TO.P,SW2,2,2*%
%TO.N,/INT1*%
X125000000Y-113000000D03*
X118500000Y-113000000D03*
%TD*%
D12*
%TO.P,R9,1*%
%TO.N,/3.3V*%
X128500000Y-85000000D03*
%TO.P,R9,2*%
%TO.N,/SDA*%
X120880000Y-85000000D03*
%TD*%
D14*
%TO.P,D2,1,K*%
%TO.N,/Alert LED*%
X106725000Y-127500000D03*
D15*
%TO.P,D2,2,A*%
%TO.N,GND*%
X109265000Y-127500000D03*
%TD*%
D12*
%TO.P,R3,1*%
%TO.N,/Alert LED*%
X106500000Y-119620000D03*
%TO.P,R3,2*%
%TO.N,Net-(U1-PD6)*%
X106500000Y-112000000D03*
%TD*%
%TO.P,R10,1*%
%TO.N,/3.3V*%
X127000000Y-81000000D03*
%TO.P,R10,2*%
%TO.N,/SCL*%
X119380000Y-81000000D03*
%TD*%
D17*
%TO.P,SW3,1,1*%
%TO.N,/INT0*%
X95000000Y-113000000D03*
X101500000Y-113000000D03*
%TO.P,SW3,2,2*%
%TO.N,GND*%
X95000000Y-117500000D03*
X101500000Y-117500000D03*
%TD*%
D12*
%TO.P,R2,1*%
%TO.N,Net-(U1-PD5)*%
X113500000Y-111880000D03*
%TO.P,R2,2*%
%TO.N,/Status LED*%
X113500000Y-119500000D03*
%TD*%
%TO.P,R8,1*%
%TO.N,/3.3V*%
X139000000Y-105000000D03*
%TO.P,R8,2*%
%TO.N,Net-(U3-~{RESET})*%
X139000000Y-97380000D03*
%TD*%
%TO.P,R6,1*%
%TO.N,/3.3V*%
X107000000Y-81000000D03*
%TO.P,R6,2*%
%TO.N,/INT0*%
X114620000Y-81000000D03*
%TD*%
D24*
%TO.P,U2,1,GND*%
%TO.N,GND*%
X80850000Y-83200000D03*
%TO.P,U2,2,VO*%
%TO.N,/3.3V*%
X80850000Y-85500000D03*
D25*
X87150000Y-85500000D03*
D24*
%TO.P,U2,3,VI*%
%TO.N,+5V*%
X80850000Y-87800000D03*
%TD*%
D13*
%TO.P,C3,1*%
%TO.N,GND*%
X73500000Y-80500000D03*
D12*
%TO.P,C3,2*%
%TO.N,/3.3V*%
X73500000Y-82500000D03*
%TD*%
D10*
%TO.P,J2,1,Pin_1*%
%TO.N,/3.3V*%
X134000000Y-81500000D03*
D11*
%TO.P,J2,2,Pin_2*%
%TO.N,GND*%
X134000000Y-84040000D03*
%TO.P,J2,3,Pin_3*%
%TO.N,/RX*%
X134000000Y-86580000D03*
%TO.P,J2,4,Pin_4*%
%TO.N,/TX*%
X134000000Y-89120000D03*
%TD*%
D10*
%TO.P,door_reed1,1,1*%
%TO.N,Net-(U1-PD4)*%
X97960000Y-88500000D03*
D11*
%TO.P,door_reed1,2,2*%
%TO.N,/3.3V*%
X100500000Y-88500000D03*
%TD*%
D12*
%TO.P,R7,1*%
%TO.N,/3.3V*%
X95500000Y-81000000D03*
%TO.P,R7,2*%
%TO.N,/INT1*%
X103120000Y-81000000D03*
%TD*%
%TO.P,C4,1*%
%TO.N,GND*%
X120000000Y-95250000D03*
%TO.P,C4,2*%
%TO.N,/3.3V*%
X120000000Y-97750000D03*
%TD*%
%TO.P,Thermistor1,1*%
%TO.N,GND*%
X133500000Y-127000000D03*
%TO.P,Thermistor1,2*%
%TO.N,/TEMP_ADC*%
X133500000Y-119380000D03*
%TD*%
D26*
%TO.N,GND*%
X79000000Y-82500000D03*
X71500000Y-82000000D03*
X117000000Y-95000000D03*
X76500000Y-108000000D03*
X101500000Y-119500000D03*
X136000000Y-84000000D03*
X146500000Y-94500000D03*
X112500000Y-126500000D03*
X99000000Y-104000000D03*
X118500000Y-119500000D03*
X106490155Y-95972020D03*
X135500000Y-127000000D03*
X113500000Y-106000000D03*
X131400000Y-101500000D03*
X71500000Y-86000000D03*
X107000000Y-94275000D03*
%TO.N,Net-(U1-AREF)*%
X117000000Y-96500000D03*
X117000000Y-98000000D03*
%TO.N,/3.3V*%
X120000000Y-100500000D03*
X124000000Y-101500000D03*
X105000000Y-82500000D03*
X123500000Y-87500000D03*
X102000000Y-84000000D03*
X102000000Y-94500000D03*
X100500000Y-92000000D03*
X121000000Y-97500000D03*
%TO.N,/SDA*%
X115500000Y-91500000D03*
X116500000Y-87500000D03*
%TO.N,/SCL*%
X113000000Y-87500000D03*
X132000000Y-92900000D03*
X132000000Y-95000000D03*
X132000000Y-103000000D03*
X132000000Y-99500000D03*
X113000000Y-89100000D03*
%TO.N,/RX*%
X115000000Y-90100000D03*
X125500000Y-90100000D03*
X128500000Y-89500000D03*
X111000000Y-90000000D03*
%TO.N,/TX*%
X127500000Y-89000000D03*
X131000000Y-89000000D03*
%TO.N,Net-(U1-PD5)*%
X107975735Y-103475735D03*
X108000000Y-106500000D03*
%TO.N,Net-(U1-PD6)*%
X109500000Y-101500000D03*
X109000000Y-104500000D03*
%TO.N,/INT0*%
X105000000Y-99500000D03*
X101500000Y-109000000D03*
X103000000Y-105500000D03*
X107000000Y-90500000D03*
%TO.N,/INT1*%
X103500000Y-95500000D03*
X103500000Y-92900000D03*
X103500000Y-102500000D03*
X113000000Y-110000000D03*
%TD*%
D27*
%TO.N,+5V*%
X72400000Y-120000000D02*
X72400000Y-90100000D01*
X72400000Y-90100000D02*
X73500000Y-89000000D01*
X77700000Y-87800000D02*
X80850000Y-87800000D01*
X76500000Y-89000000D02*
X77700000Y-87800000D01*
X73500000Y-89000000D02*
X76500000Y-89000000D01*
%TO.N,Net-(BZ1--)*%
X80000000Y-120000000D02*
X80770000Y-119230000D01*
X80770000Y-119230000D02*
X80770000Y-107860000D01*
%TO.N,GND*%
X109265000Y-127500000D02*
X112500000Y-127500000D01*
X146460000Y-92500000D02*
X146460000Y-94460000D01*
X80850000Y-83200000D02*
X79700000Y-83200000D01*
X107025000Y-94300000D02*
X107000000Y-94275000D01*
X107337500Y-94300000D02*
X107025000Y-94300000D01*
X117250000Y-95250000D02*
X117000000Y-95000000D01*
X72000000Y-80500000D02*
X71500000Y-81000000D01*
X146460000Y-94460000D02*
X146500000Y-94500000D01*
X99500000Y-103500000D02*
X99000000Y-104000000D01*
X107337500Y-95900000D02*
X106562175Y-95900000D01*
X132425000Y-101750000D02*
X131650000Y-101750000D01*
X71500000Y-81000000D02*
X71500000Y-82000000D01*
X78230000Y-107860000D02*
X76640000Y-107860000D01*
X112500000Y-127500000D02*
X115460000Y-127500000D01*
X133500000Y-127000000D02*
X135500000Y-127000000D01*
X76640000Y-107860000D02*
X76500000Y-108000000D01*
X120000000Y-95250000D02*
X117250000Y-95250000D01*
X101500000Y-117500000D02*
X101500000Y-119500000D01*
X72500000Y-87000000D02*
X71500000Y-86000000D01*
X95000000Y-117500000D02*
X101500000Y-117500000D01*
X131650000Y-101750000D02*
X131400000Y-101500000D01*
X132825000Y-101750000D02*
X132575000Y-101750000D01*
X118500000Y-117500000D02*
X118500000Y-119500000D01*
X106562175Y-95900000D02*
X106490155Y-95972020D01*
X112500000Y-127500000D02*
X112500000Y-126500000D01*
X116900000Y-95100000D02*
X117000000Y-95000000D01*
X118500000Y-117500000D02*
X125000000Y-117500000D01*
X134000000Y-84040000D02*
X135960000Y-84040000D01*
X79700000Y-83200000D02*
X79000000Y-82500000D01*
X132500000Y-101675000D02*
X132425000Y-101750000D01*
X73500000Y-80500000D02*
X72000000Y-80500000D01*
X135960000Y-84040000D02*
X136000000Y-84000000D01*
X73500000Y-87000000D02*
X72500000Y-87000000D01*
X113500000Y-104000000D02*
X113500000Y-106000000D01*
X99500000Y-102620000D02*
X99500000Y-103500000D01*
X132575000Y-101750000D02*
X132500000Y-101675000D01*
X115662500Y-95100000D02*
X116900000Y-95100000D01*
%TO.N,Net-(U1-AREF)*%
X116000000Y-104000000D02*
X116000000Y-100000000D01*
X116400000Y-95900000D02*
X115662500Y-95900000D01*
X117000000Y-96500000D02*
X116400000Y-95900000D01*
X117000000Y-99000000D02*
X117000000Y-98000000D01*
X116000000Y-100000000D02*
X117000000Y-99000000D01*
%TO.N,/3.3V*%
X149000000Y-99500000D02*
X149000000Y-92500000D01*
X130500000Y-82500000D02*
X131500000Y-81500000D01*
X134750000Y-104750000D02*
X133500000Y-106000000D01*
X120000000Y-100500000D02*
X120000000Y-97750000D01*
X105000000Y-81500000D02*
X105500000Y-81000000D01*
X110500000Y-95100000D02*
X112702472Y-95100000D01*
X106600001Y-95100000D02*
X106000001Y-94500000D01*
X119650000Y-97400000D02*
X120000000Y-97750000D01*
X73500000Y-82500000D02*
X77850000Y-82500000D01*
X100500000Y-85000000D02*
X101500000Y-84000000D01*
X124000000Y-101500000D02*
X128500000Y-106000000D01*
X115762500Y-97400000D02*
X119650000Y-97400000D01*
X131500000Y-81500000D02*
X134000000Y-81500000D01*
X128500000Y-87000000D02*
X128500000Y-85000000D01*
X135175000Y-104325000D02*
X134750000Y-104750000D01*
X127000000Y-81000000D02*
X128500000Y-82500000D01*
X112702472Y-95100000D02*
X115102472Y-97500000D01*
X77850000Y-82500000D02*
X80850000Y-85500000D01*
X135175000Y-102750000D02*
X135175000Y-104325000D01*
X139000000Y-105000000D02*
X135850000Y-105000000D01*
X80850000Y-85500000D02*
X87150000Y-85500000D01*
X128000000Y-87500000D02*
X128500000Y-87000000D01*
X107337500Y-95100000D02*
X106600001Y-95100000D01*
X128500000Y-82500000D02*
X128500000Y-85000000D01*
X91650000Y-81000000D02*
X95500000Y-81000000D01*
X120000000Y-97750000D02*
X120750000Y-97750000D01*
X115102472Y-97500000D02*
X115662500Y-97500000D01*
X133500000Y-106000000D02*
X133500000Y-107880000D01*
X95500000Y-83000000D02*
X95500000Y-81000000D01*
X100500000Y-92000000D02*
X100500000Y-88500000D01*
X115662500Y-97500000D02*
X115762500Y-97400000D01*
X128500000Y-82500000D02*
X130500000Y-82500000D01*
X105000000Y-82500000D02*
X105000000Y-81500000D01*
X107337500Y-95100000D02*
X110500000Y-95100000D01*
X87150000Y-85500000D02*
X91650000Y-81000000D01*
X120750000Y-97750000D02*
X121000000Y-97500000D01*
X108900000Y-96700000D02*
X110500000Y-95100000D01*
X128500000Y-106000000D02*
X133500000Y-106000000D01*
X135850000Y-105000000D02*
X135175000Y-104325000D01*
X139000000Y-105000000D02*
X143500000Y-105000000D01*
X143500000Y-105000000D02*
X149000000Y-99500000D01*
X105500000Y-81000000D02*
X107000000Y-81000000D01*
X123500000Y-87500000D02*
X128000000Y-87500000D01*
X100500000Y-88500000D02*
X100500000Y-88000000D01*
X101500000Y-84000000D02*
X102000000Y-84000000D01*
X107337500Y-96700000D02*
X108900000Y-96700000D01*
X106000001Y-94500000D02*
X102000000Y-94500000D01*
X100500000Y-88000000D02*
X95500000Y-83000000D01*
X100500000Y-88500000D02*
X100500000Y-85000000D01*
%TO.N,/Status LED*%
X113500000Y-119500000D02*
X115000000Y-119500000D01*
X115000000Y-119500000D02*
X118000000Y-122500000D01*
X118000000Y-122500000D02*
X118000000Y-127500000D01*
%TO.N,/Alert LED*%
X106500000Y-119620000D02*
X106500000Y-127275000D01*
X106500000Y-127275000D02*
X106725000Y-127500000D01*
%TO.N,/SDA*%
X112700000Y-91337500D02*
X112700000Y-91897528D01*
X141420000Y-95000000D02*
X143920000Y-92500000D01*
X132825000Y-94175000D02*
X133500000Y-93500000D01*
X139500000Y-94500000D02*
X139500000Y-95000000D01*
X126500000Y-89500000D02*
X126500000Y-93500000D01*
X114625000Y-92375000D02*
X115500000Y-91500000D01*
X119000000Y-85000000D02*
X120880000Y-85000000D01*
X112700000Y-91897528D02*
X113177472Y-92375000D01*
X112700000Y-90600001D02*
X113800001Y-89500000D01*
X132825000Y-101250000D02*
X132825000Y-94175000D01*
X138500000Y-93500000D02*
X133500000Y-93500000D01*
X139500000Y-95000000D02*
X141420000Y-95000000D01*
X138500000Y-93500000D02*
X139500000Y-94500000D01*
X113800001Y-89500000D02*
X126500000Y-89500000D01*
X112700000Y-91337500D02*
X112700000Y-90600001D01*
X113177472Y-92375000D02*
X114625000Y-92375000D01*
X116500000Y-87500000D02*
X119000000Y-85000000D01*
X126500000Y-93500000D02*
X133500000Y-93500000D01*
%TO.N,/SCL*%
X126565685Y-89000000D02*
X127000000Y-89434315D01*
X111900000Y-90600001D02*
X113500001Y-89000000D01*
X127000000Y-89434315D02*
X127000000Y-93000000D01*
X140880000Y-92000000D02*
X141380000Y-92500000D01*
X113000000Y-87500000D02*
X113500000Y-87000000D01*
X111900000Y-91337500D02*
X111900000Y-90600001D01*
X113500000Y-87000000D02*
X113500000Y-86880000D01*
X113500001Y-89000000D02*
X126565685Y-89000000D01*
X113500000Y-86880000D02*
X119380000Y-81000000D01*
X132000000Y-99500000D02*
X132000000Y-95000000D01*
X132825000Y-102750000D02*
X132250000Y-102750000D01*
X127000000Y-93000000D02*
X139000000Y-93000000D01*
X140000000Y-92000000D02*
X140880000Y-92000000D01*
X139000000Y-93000000D02*
X140000000Y-92000000D01*
X113500001Y-89000000D02*
X113100000Y-89000000D01*
X132250000Y-102750000D02*
X132000000Y-103000000D01*
X113100000Y-89000000D02*
X113000000Y-89100000D01*
%TO.N,/RX*%
X110300000Y-91337500D02*
X110300000Y-90200000D01*
X110300000Y-90200000D02*
X110500000Y-90000000D01*
X128500000Y-89500000D02*
X130500000Y-87500000D01*
X130920000Y-86580000D02*
X134000000Y-86580000D01*
X130500000Y-87000000D02*
X130920000Y-86580000D01*
X110500000Y-90000000D02*
X111000000Y-90000000D01*
X130500000Y-87500000D02*
X130500000Y-87000000D01*
X125400000Y-90000000D02*
X125500000Y-90100000D01*
X124400000Y-90100000D02*
X124500000Y-90000000D01*
X124500000Y-90000000D02*
X125400000Y-90000000D01*
X115000000Y-90100000D02*
X124400000Y-90100000D01*
%TO.N,/TX*%
X109500000Y-91337500D02*
X109500000Y-90434315D01*
X109500000Y-90434315D02*
X111434315Y-88500000D01*
X111434315Y-88500000D02*
X127000000Y-88500000D01*
X127000000Y-88500000D02*
X127500000Y-89000000D01*
X131000000Y-89000000D02*
X131120000Y-89120000D01*
X131120000Y-89120000D02*
X134000000Y-89120000D01*
%TO.N,Net-(Q1-B)*%
X79500000Y-107860000D02*
X79500000Y-107000000D01*
X84690000Y-106500000D02*
X85690000Y-107500000D01*
X80000000Y-106500000D02*
X84690000Y-106500000D01*
X79500000Y-107000000D02*
X80000000Y-106500000D01*
%TO.N,/TEMP_ADC*%
X127000000Y-117000000D02*
X132000000Y-117000000D01*
X127000000Y-111500000D02*
X127000000Y-117000000D01*
X122000000Y-94500000D02*
X122000000Y-110000000D01*
X115662500Y-93500000D02*
X121000000Y-93500000D01*
X133500000Y-118500000D02*
X133500000Y-119380000D01*
X126500000Y-111000000D02*
X127000000Y-111500000D01*
X121000000Y-93500000D02*
X122000000Y-94500000D01*
X132000000Y-117000000D02*
X133500000Y-115500000D01*
X123000000Y-111000000D02*
X126500000Y-111000000D01*
X122000000Y-110000000D02*
X123000000Y-111000000D01*
X132000000Y-117000000D02*
X133500000Y-118500000D01*
%TO.N,Net-(U1-PD5)*%
X113500000Y-111880000D02*
X108620000Y-107000000D01*
X107975735Y-102524265D02*
X108700000Y-101800000D01*
X107975735Y-103475735D02*
X107975735Y-102524265D01*
X108500000Y-107000000D02*
X108000000Y-106500000D01*
X108620000Y-107000000D02*
X108500000Y-107000000D01*
X108700000Y-101800000D02*
X108700000Y-99662500D01*
%TO.N,Net-(U1-PD6)*%
X109500000Y-101500000D02*
X109500000Y-99662500D01*
X106500000Y-107000000D02*
X109000000Y-104500000D01*
X106500000Y-112000000D02*
X106500000Y-107000000D01*
%TO.N,Net-(U1-PD4)*%
X99500000Y-93500000D02*
X107337500Y-93500000D01*
X99500000Y-95000000D02*
X99500000Y-93500000D01*
X97960000Y-91960000D02*
X97960000Y-88500000D01*
X99500000Y-93500000D02*
X97960000Y-91960000D01*
%TO.N,Net-(U1-PB1)*%
X104799999Y-107500000D02*
X93310000Y-107500000D01*
X111900000Y-99662500D02*
X111900000Y-100399999D01*
X111900000Y-100399999D02*
X104799999Y-107500000D01*
%TO.N,/INT0*%
X105000000Y-103500000D02*
X105000000Y-99500000D01*
X108700000Y-91337500D02*
X108700000Y-88800000D01*
X95000000Y-113000000D02*
X101500000Y-113000000D01*
X107862500Y-90500000D02*
X108700000Y-91337500D01*
X108700000Y-88800000D02*
X114620000Y-82880000D01*
X101500000Y-113000000D02*
X101500000Y-109000000D01*
X114620000Y-82880000D02*
X114620000Y-81000000D01*
X107000000Y-90500000D02*
X107862500Y-90500000D01*
X103000000Y-105500000D02*
X105000000Y-103500000D01*
%TO.N,/INT1*%
X115500000Y-110000000D02*
X113000000Y-110000000D01*
X103120000Y-81000000D02*
X103120000Y-88482500D01*
X103120000Y-88482500D02*
X107337500Y-92700000D01*
X118500000Y-113000000D02*
X125000000Y-113000000D01*
X103500000Y-92900000D02*
X104400000Y-92900000D01*
X103500000Y-102500000D02*
X103500000Y-95500000D01*
X104600000Y-92700000D02*
X107337500Y-92700000D01*
X118500000Y-113000000D02*
X115500000Y-110000000D01*
X104400000Y-92900000D02*
X104600000Y-92700000D01*
%TO.N,Net-(U3-~{RESET})*%
X139000000Y-97380000D02*
X137120000Y-97380000D01*
X135675000Y-102250000D02*
X135175000Y-102250000D01*
X137120000Y-97380000D02*
X137000000Y-97500000D01*
X137000000Y-100925000D02*
X135675000Y-102250000D01*
X137000000Y-97500000D02*
X137000000Y-100925000D01*
%TD*%
M02*
