M48
; DRILL file {KiCad 9.0.8} date 2026-04-28T18:14:44-0500
; FORMAT={-:-/ absolute / metric / decimal}
; #@! TF.CreationDate,2026-04-28T18:14:44-05:00
; #@! TF.GenerationSoftware,Kicad,Pcbnew,9.0.8
; #@! TF.FileFunction,Plated,1,2,PTH
FMAT,2
METRIC
; #@! TA.AperFunction,Plated,PTH,ViaDrill
T1C0.300
; #@! TA.AperFunction,Plated,PTH,ComponentDrill
T2C0.750
; #@! TA.AperFunction,Plated,PTH,ComponentDrill
T3C0.800
; #@! TA.AperFunction,Plated,PTH,ComponentDrill
T4C0.900
; #@! TA.AperFunction,Plated,PTH,ComponentDrill
T5C1.000
; #@! TA.AperFunction,Plated,PTH,ComponentDrill
T6C1.100
%
G90
G05
T1
X71.5Y-82.0
X71.5Y-86.0
X76.5Y-108.0
X79.0Y-82.5
X99.0Y-104.0
X100.5Y-92.0
X101.5Y-109.0
X101.5Y-119.5
X102.0Y-84.0
X102.0Y-94.5
X103.0Y-105.5
X103.5Y-92.9
X103.5Y-95.5
X103.5Y-102.5
X105.0Y-82.5
X105.0Y-99.5
X106.49Y-95.972
X107.0Y-90.5
X107.0Y-94.275
X107.976Y-103.476
X108.0Y-106.5
X109.0Y-104.5
X109.5Y-101.5
X111.0Y-90.0
X112.5Y-126.5
X113.0Y-87.5
X113.0Y-89.1
X113.0Y-110.0
X113.5Y-106.0
X115.0Y-90.1
X115.5Y-91.5
X116.5Y-87.5
X117.0Y-95.0
X117.0Y-96.5
X117.0Y-98.0
X118.5Y-119.5
X120.0Y-100.5
X121.0Y-97.5
X123.5Y-87.5
X124.0Y-101.5
X125.5Y-90.1
X127.5Y-89.0
X128.5Y-89.5
X131.0Y-89.0
X131.4Y-101.5
X132.0Y-92.9
X132.0Y-95.0
X132.0Y-99.5
X132.0Y-103.0
X135.5Y-127.0
X136.0Y-84.0
X146.5Y-94.5
T2
X78.23Y-107.86
X79.5Y-107.86
X80.77Y-107.86
T3
X73.5Y-80.5
X73.5Y-82.5
X73.5Y-87.0
X73.5Y-89.0
X85.69Y-107.5
X93.31Y-107.5
X95.5Y-81.0
X99.5Y-95.0
X99.5Y-102.62
X103.12Y-81.0
X106.5Y-112.0
X106.5Y-119.62
X107.0Y-81.0
X113.5Y-104.0
X113.5Y-111.88
X113.5Y-119.5
X114.62Y-81.0
X116.0Y-104.0
X119.38Y-81.0
X120.0Y-95.25
X120.0Y-97.75
X120.88Y-85.0
X127.0Y-81.0
X128.5Y-85.0
X133.5Y-107.88
X133.5Y-115.5
X133.5Y-119.38
X133.5Y-127.0
X139.0Y-97.38
X139.0Y-105.0
T4
X106.725Y-127.5
X109.265Y-127.5
X115.46Y-127.5
X118.0Y-127.5
T5
X72.4Y-120.0
X80.0Y-120.0
X97.96Y-88.5
X100.5Y-88.5
X134.0Y-81.5
X134.0Y-84.04
X134.0Y-86.58
X134.0Y-89.12
X141.38Y-92.5
X143.92Y-92.5
X146.46Y-92.5
X149.0Y-92.5
T6
X95.0Y-113.0
X95.0Y-117.5
X101.5Y-113.0
X101.5Y-117.5
X118.5Y-113.0
X118.5Y-117.5
X125.0Y-113.0
X125.0Y-117.5
M30
